#!OML:ASF F:\VICON\USERDATA\INSTALL\rory3\rory3.ASF
:FULLY-SPECIFIED
:DEGREES
86
root -10.5799 17.4918 -5.10985 16.9093 91.4848 19.7799
lowerback 12.6212 0.173002 -2.6658
upperback 0.491107 -0.0156862 1.43947
thorax -6.56973 0.113739 3.03105
lowerneck -13.4161 -10.5642 -14.9177
upperneck 30.1401 -14.2421 10.9682
head 14.6055 -6.32252 4.53768
rclavicle -4.05024e-015 3.57812e-015
rhumerus -42.168 -21.3739 -69.2912
rradius 35.1536
rwrist 5.63645
rhand -17.2198 8.32635
rfingers 7.12502
rthumb 9.02327 -21.4607
lclavicle -4.05024e-015 3.57812e-015
lhumerus -35.7174 4.58647 79.7099
lradius 35.8745
lwrist -2.18283
lhand -19.2131 25.8706
lfingers 7.12502
lthumb 7.09943 55.7315
rfemur -2.98524 4.32247 2.01252
rtibia 29.3134
rfoot -5.29942 -9.93681
rtoes 23.9453
lfemur -1.51867 -10.0462 -11.9726
ltibia 25.4866
lfoot -16.501 -3.69654
ltoes -11.6938
87
root -10.5814 17.4803 -4.99813 12.6714 91.5502 15.5289
lowerback 12.5309 0.222978 -2.77724
upperback 0.495485 0.0376836 1.45689
thorax -6.51852 0.142411 3.10246
lowerneck -13.423 -10.5641 -14.819
upperneck 30.0833 -14.2183 10.8334
head 14.5531 -6.31824 4.467
rclavicle 5.5287e-015 -1.98785e-016
rhumerus -42.0827 -21.4423 -69.141
rradius 34.9424
rwrist 5.77238
rhand -17.5599 8.04358
rfingers 7.12502
rthumb 8.69506 -21.7573
lclavicle 5.5287e-015 -1.98785e-016
lhumerus -35.6211 4.72288 79.5613
lradius 35.7998
lwrist -2.34516
lhand -18.3672 24.8905
lfingers 7.12502
lthumb 7.91598 54.7223
rfemur -2.43892 4.89057 1.66972
rtibia 28.3295
rfoot -5.01869 -10.0438
rtoes 22.0506
lfemur -1.58691 -10.3407 -11.6619
ltibia 25.4892
lfoot -16.3967 -3.70988
ltoes -11.392
88
root -10.5844 17.4637 -4.88482 11.949 91.5875 14.8292
lowerback 12.4685 0.238489 -2.77903
upperback 0.523968 0.0582378 1.43285
thorax -6.45466 0.150684 3.07355
lowerneck -13.4958 -10.5367 -14.8403
upperneck 30.1056 -14.1684 10.847
head 14.5742 -6.29475 4.48458
rclavicle 6.08778e-016 -6.95746e-015
rhumerus -42.0066 -21.5099 -69.1923
rradius 34.8186
rwrist 5.86917
rhand -17.4503 7.83453
rfingers 7.12502
rthumb 8.80082 -21.962
lclavicle 6.08778e-016 -6.95746e-015
lhumerus -35.568 5.00121 79.2544
lradius 35.7966
lwrist -2.50392
lhand -17.5075 23.9564
lfingers 7.12502
lthumb 8.74566 53.7552
rfemur -1.89788 5.79912 1.43626
rtibia 27.4065
rfoot -5.12355 -10.29
rtoes 21.7777
lfemur -1.61526 -10.4786 -11.2432
ltibia 25.4822
lfoot -16.2842 -3.6249
ltoes -13.5633
89
root -10.5844 17.4563 -4.76823 13.1341 91.5748 16.0142
lowerback 12.3754 0.282624 -2.69714
upperback 0.541126 0.125034 1.35392
thorax -6.38862 0.178128 2.9307
lowerneck -13.5232 -10.5592 -14.914
upperneck 30.1406 -14.239 11.0233
head 14.6343 -6.30932 4.55715
rclavicle -1.31695e-015 -1.59028e-015
rhumerus -42.0337 -21.7882 -69.3158
rradius 34.7119
rwrist 5.91902
rhand -17.2197 8.05752
rfingers 7.12502
rthumb 9.02336 -21.7295
lclavicle -1.31695e-015 -1.59028e-015
lhumerus -35.5343 4.99443 78.9538
lradius 35.8476
lwrist -2.40241
lhand -16.4425 23.0549
lfingers 7.12502
lthumb 9.77328 52.8081
rfemur -1.39308 6.37509 1.33351
rtibia 26.612
rfoot -4.68664 -10.2352
rtoes 19.4257
lfemur -1.61972 -10.4788 -10.7731
ltibia 25.4323
lfoot -16.1872 -3.34448
ltoes -17.5311
90
root -10.5859 17.443 -4.64198 14.3446 91.5714 17.2884
lowerback 12.4063 0.377764 -2.67601
upperback 0.536319 0.251712 1.32642
thorax -6.41985 0.239651 2.8673
lowerneck -13.479 -10.5884 -14.8462
upperneck 30.1327 -14.3023 11.0186
head 14.6247 -6.32966 4.53264
rclavicle -2.6339e-015 -2.98177e-015
rhumerus -42.1342 -22.1695 -69.2742
rradius 34.5902
rwrist 6.26674
rhand -17.1089 8.08442
rfingers 7.12502
rthumb 9.13026 -21.6979
lclavicle -2.6339e-015 -2.98177e-015
lhumerus -35.5504 4.91678 78.7309
lradius 35.9134
lwrist -2.30806
lhand -15.3849 22.5875
lfingers 7.12502
lthumb 10.7935 52.2901
rfemur -0.909324 6.77722 1.25123
rtibia 25.9189
rfoot -3.97697 -9.62064
rtoes 17.4136
lfemur -1.56707 -10.5293 -10.2858
ltibia 25.3785
lfoot -16.1323 -3.01881
ltoes -20.4945
91
root -10.5922 17.4285 -4.51114 14.6178 91.5311 17.6256
lowerback 12.5343 0.472733 -2.76788
upperback 0.494437 0.361876 1.33746
thorax -6.54472 0.299001 2.91215
lowerneck -13.434 -10.5895 -14.9902
upperneck 30.1401 -14.2996 11.1117
head 14.6421 -6.33418 4.59846
rclavicle -1.2921e-015 8.94531e-015
rhumerus -42.1695 -22.3593 -69.2308
rradius 34.4846
rwrist 6.58748
rhand -17.2014 7.90459
rfingers 7.12502
rthumb 9.041 -21.8817
lclavicle -1.2921e-015 8.94531e-015
lhumerus -35.5925 4.89055 78.5325
lradius 35.9142
lwrist -2.18902
lhand -14.2941 22.0324
lfingers 7.12502
lthumb 11.8456 51.6773
rfemur -0.492183 7.25091 1.15575
rtibia 25.3464
rfoot -3.58617 -8.62194
rtoes 15.2805
lfemur -1.51417 -10.8119 -9.82248
ltibia 25.3609
lfoot -15.9833 -2.91071
ltoes -21.3293
92
root -10.6001 17.4081 -4.383 14.3671 91.4834 17.3512
lowerback 12.501 0.497368 -2.82689
upperback 0.467889 0.383848 1.30762
thorax -6.55614 0.311208 2.91009
lowerneck -13.4602 -10.5299 -15.0393
upperneck 30.1926 -14.1875 11.0852
head 14.6543 -6.2934 4.61979
rclavicle -3.2054e-015 2.78299e-015
rhumerus -42.0621 -22.4256 -69.3487
rradius 34.3545
rwrist 6.9111
rhand -17.1805 8.04472
rfingers 7.12502
rthumb 9.06119 -21.7407
lclavicle -3.2054e-015 2.78299e-015
lhumerus -35.6401 4.99431 78.1926
lradius 35.9452
lwrist -1.97935
lhand -12.7288 21.2095
lfingers 7.12502
lthumb 13.3546 50.7615
rfemur -0.123543 7.67714 1.05346
rtibia 24.757
rfoot -3.76146 -7.583
rtoes 10.3801
lfemur -1.64009 -11.0472 -9.36293
ltibia 25.4727
lfoot -15.8481 -2.81396
ltoes -21.9522
93
root -10.6103 17.3859 -4.25378 9.48268 91.4477 12.4073
lowerback 12.4532 0.519328 -2.98239
upperback 0.433663 0.385732 1.2383
thorax -6.56651 0.315834 2.92456
lowerneck -13.4717 -10.4272 -14.8184
upperneck 30.1826 -14.0503 10.965
head 14.593 -6.2236 4.56095
rclavicle -1.2424e-016 -6.75868e-015
rhumerus -41.9475 -22.5626 -69.4733
rradius 34.1837
rwrist 7.37856
rhand -17.0758 8.18971
rfingers 7.12502
rthumb 9.16221 -21.5913
lclavicle -1.2424e-016 -6.75868e-015
lhumerus -35.695 5.2895 77.7737
lradius 36.0002
lwrist -1.77571
lhand -13.5435 21.722
lfingers 7.12502
lthumb 12.5693 51.3239
rfemur 0.215867 8.00934 0.854484
rtibia 24.1932
rfoot -4.41408 -6.67234
rtoes 2.96611
lfemur -1.85979 -11.2027 -8.9929
ltibia 25.6636
lfoot -15.7236 -3.01662
ltoes -21.2982
94
root -10.6235 17.3742 -4.12332 6.27402 91.5145 9.20013
lowerback 12.5971 0.52623 -3.02423
upperback 0.35995 0.380903 1.20407
thorax -6.72565 0.317609 2.9135
lowerneck -13.507 -10.382 -14.658
upperneck 30.2479 -13.9483 10.7345
head 14.5733 -6.18723 4.4594
rclavicle -1.05604e-015 2.18663e-015
rhumerus -41.8399 -22.4362 -69.6458
rradius 34.0224
rwrist 7.44041
rhand -17.1793 8.1151
rfingers 7.12502
rthumb 9.06234 -21.6702
lclavicle -1.05604e-015 2.18663e-015
lhumerus -35.7928 5.64109 77.4262
lradius 36.0537
lwrist -1.65878
lhand -17.3519 24.0838
lfingers 7.12502
lthumb 8.89578 53.8763
rfemur 0.606356 8.18937 0.751129
rtibia 23.6447
rfoot -5.44205 -5.60362
rtoes -4.56037
lfemur -2.03248 -11.6515 -8.51882
ltibia 25.8775
lfoot -15.3701 -3.59935
ltoes -18.3543
95
root -10.6364 17.3602 -3.98512 2.92549 91.5522 5.84184
lowerback 12.6851 0.551374 -3.0654
upperback 0.305899 0.398834 1.12593
thorax -6.83384 0.328582 2.85098
lowerneck -13.5176 -10.3716 -14.7865
upperneck 30.3521 -13.9125 10.7698
head 14.6335 -6.1794 4.5065
rclavicle -2.40405e-015 -2.38542e-015
rhumerus -41.7095 -22.19 -69.9357
rradius 33.9343
rwrist 7.20336
rhand -17.2776 8.18705
rfingers 7.12502
rthumb 8.96747 -21.6024
lclavicle -2.40405e-015 -2.38542e-015
lhumerus -35.8806 5.94437 77.0613
lradius 36.0895
lwrist -1.65526
lhand -19.5421 25.522
lfingers 7.12502
lthumb 6.7819 55.3934
rfemur 0.93691 8.31296 0.676919
rtibia 23.0444
rfoot -6.44471 -4.32438
rtoes -10.4345
lfemur -2.25966 -12.0082 -8.04872
ltibia 26.1185
lfoot -14.9633 -3.93048
ltoes -17.4466
96
root -10.6475 17.3352 -3.83492 3.72741 91.4448 6.64287
lowerback 12.6312 0.622989 -3.09741
upperback 0.337214 0.485101 1.03781
thorax -6.77586 0.36882 2.75954
lowerneck -13.5374 -10.3191 -14.8615
upperneck 30.3346 -13.8586 10.9181
head 14.6428 -6.14656 4.59183
rclavicle 2.86995e-015 9.24349e-015
rhumerus -41.584 -22.1249 -70.301
rradius 33.9846
rwrist 7.25403
rhand -17.2517 8.31379
rfingers 7.12502
rthumb 8.99243 -21.4746
lclavicle 2.86995e-015 9.24349e-015
lhumerus -35.8313 6.09813 76.5974
lradius 36.0967
lwrist -1.62629
lhand -19.9521 25.6878
lfingers 7.12502
lthumb 6.38604 55.5715
rfemur 1.22799 8.68681 0.839188
rtibia 22.4507
rfoot -7.36416 -3.32424
rtoes -15.0813
lfemur -2.43854 -11.8521 -7.46908
ltibia 26.2977
lfoot -14.7562 -3.83232
ltoes -19.2131
